<svg width="100" height="100" viewBox="0 0 100 100" fill="none" xmlns="http://www.w3.org/2000/svg">
<g clip-path="url(#background)">
<path opacity="0.2" fill-rule="evenodd" clip-rule="evenodd" d="M50 84.0004C48.7904 82.8904 44.789 81.5 42 81.5C41.1488 81.4994 36.8384 82.3534 36 82.5004V81.5C37 80.5 40.2986 79.9827 42.5 80.0004C44.9891 80.0204 49.2203 82.3504 50 84.0004Z" fill="black"/>
<path opacity="0.2" fill-rule="evenodd" clip-rule="evenodd" d="M50 84.0004C51.2096 82.8904 55.211 81.5 58 81.5C58.8512 81.4994 63.1616 82.3534 64 82.5004V81.5C63 80.5 59.7014 79.9827 57.5 80.0004C55.0109 80.0204 50.7797 82.3504 50 84.0004Z" fill="black"/>
<path fill-rule="evenodd" clip-rule="evenodd" d="M84.9862 100H15.0104C15.0104 87 17.0097 84 17.0996 83.79C18.2336 81.4688 19.8289 79.4034 21.788 77.72C22.8594 76.8105 24.0258 76.0193 25.2668 75.36C26.1059 74.9177 26.9743 74.5334 27.8659 74.21C28.7696 73.8882 29.6949 73.6308 30.635 73.44C31.3479 73.2895 32.0688 73.1793 32.7942 73.11C33.524 73 34.2637 73 35.0035 73H40.0017C40.157 75.3223 39.4305 77.261 36.5 82C37.3384 81.853 40.1255 80.8131 42.5 81C45.6074 81.2446 48.7904 82.89 50 84C51.3995 82.9 54 81 57.5 81C61 81 62.3022 81.7595 63.5 82C60.6185 78.4834 59.5632 76.5124 59.9748 73H64.9731C65.4629 73 65.9728 73 66.4426 73C67.4138 73.0591 68.3794 73.1894 69.3316 73.39C70.2713 73.5822 71.1966 73.8394 72.1006 74.16C72.9896 74.4782 73.8548 74.8591 74.6897 75.3C77.1787 76.6088 79.344 78.4571 81.0276 80.71C81.5873 81.4625 82.0918 82.2546 82.537 83.08C82.777 83.54 84.9862 87 84.9862 100Z" fill="currentColor"/>
</g>
</svg>
