<?xml version="1.0" encoding="utf-8" ?>
<svg xmlns="http://www.w3.org/2000/svg" xmlns:xlink="http://www.w3.org/1999/xlink" width="100" height="112">
	<rect fill="rgb(255,255,255)" fill-opacity="0" stroke="none" width="100" height="100"/>
	<defs>
		<clipPath id="clip_0">
			<rect width="100" height="100" clip-rule="evenodd"/>
		</clipPath>
	</defs>
	<g clip-path="url(#clip_0)">
		<path fill="currentColor" stroke="none" transform="translate(16.7872 73)" d="M24.0449 0L18.2128 0Q17.8417 0 17.4722 0.0122428Q17.1028 0.0244855 16.7355 0.048958Q16.3682 0.0734304 16.0034 0.110106Q15.6386 0.146782 15.2767 0.195622Q14.9148 0.244462 14.5562 0.305414Q14.1976 0.366366 13.8427 0.439364Q13.4878 0.512362 13.1369 0.597329Q12.7861 0.682296 12.4397 0.77914Q12.0932 0.875984 11.7516 0.984601Q11.41 1.09322 11.0736 1.21349Q10.7372 1.33377 10.4063 1.46557Q10.0754 1.59737 9.75037 1.74057Q9.42536 1.88376 9.10659 2.03818Q8.78782 2.1926 8.47563 2.3581Q8.16344 2.52359 7.85816 2.69997Q7.55288 2.87636 7.25484 3.06344Q6.9568 3.25053 6.66632 3.44811Q6.37584 3.6457 6.09323 3.85358Q5.81062 4.06146 5.53619 4.2794Q5.26175 4.49735 4.99578 4.72513Q4.72981 4.9529 4.4726 5.19027Q4.21538 5.42764 3.96719 5.67435Q3.719 5.92105 3.48011 6.17683Q3.24121 6.4326 3.01187 6.69717Q2.78252 6.96175 2.56297 7.23483Q2.34342 7.50792 2.1339 7.78923Q1.92438 8.07054 1.72511 8.35976Q1.52585 8.64899 1.33705 8.94583Q1.14825 9.24267 0.970125 9.5468Q0.791999 9.85093 0.624733 10.162Q0.457467 10.4731 0.301242 10.7909Q0.145017 11.1086 0 11.4326C8.12866 20.5839 19.9849 26.35 33.1878 26.35C46.4088 26.35 58.2793 20.5682 66.4089 11.3952Q66.118 10.7488 65.7828 10.1283Q65.4476 9.50784 65.0695 8.91583Q64.6914 8.32382 64.2721 7.76283Q63.8528 7.20184 63.3939 6.67425Q62.9351 6.14667 62.4388 5.65476Q61.9424 5.16284 61.4107 4.70868Q60.8789 4.25453 60.3141 3.84008Q59.7492 3.42562 59.1536 3.05264Q58.558 2.67966 57.9343 2.34973Q57.3105 2.01981 56.6612 1.73436Q56.012 1.44891 55.3399 1.20915Q54.6679 0.969392 53.976 0.776344Q53.2841 0.583295 52.5753 0.437783Q51.8665 0.292271 51.1438 0.194917Q50.4211 0.0975626 49.6876 0.0487813Q48.954 0 48.2128 0L42.3808 0C40.8376 1.7659 37.3135 3 33.2128 3C29.1122 3 25.588 1.7659 24.0449 2.88658e-15L24.0449 0Z" fill-rule="evenodd"/>
	</g>
	<defs>
		<clipPath id="clip_1">
			<rect width="100" height="100" clip-rule="evenodd"/>
		</clipPath>
	</defs>
	<g clip-path="url(#clip_1)">
		<path fill="rgb(0,0,0)" fill-opacity="0.52156866" stroke="none" transform="translate(49.5 78)" d="M0 0.5C0 0.223858 0.223858 0 0.5 0C0.776142 0 1 0.223858 1 0.5C1 0.776142 0.776142 1 0.5 1C0.223858 1 0 0.776142 0 0.5Z"/>
	</g>
	<defs>
		<clipPath id="clip_2">
			<rect width="100" height="100" clip-rule="evenodd"/>
		</clipPath>
	</defs>
	<g clip-path="url(#clip_2)">
		<path fill="rgb(0,0,0)" fill-opacity="0.52156866" stroke="none" transform="translate(49.5 82)" d="M0 0.5C0 0.223858 0.223858 0 0.5 0C0.776142 0 1 0.223858 1 0.5C1 0.776142 0.776142 1 0.5 1C0.223858 1 0 0.776142 0 0.5Z"/>
	</g>
	<defs>
		<clipPath id="clip_3">
			<rect width="100" height="100" clip-rule="evenodd"/>
		</clipPath>
	</defs>
	<g clip-path="url(#clip_3)">
		<path fill="rgb(0,0,0)" fill-opacity="0.52156866" stroke="none" transform="translate(49.5 86)" d="M0 0.5C0 0.223858 0.223858 0 0.5 0C0.776142 0 1 0.223858 1 0.5C1 0.776142 0.776142 1 0.5 1C0.223858 1 0 0.776142 0 0.5Z"/>
	</g>
	<defs>
		<clipPath id="clip_4">
			<rect width="100" height="100" clip-rule="evenodd"/>
		</clipPath>
	</defs>
	<g clip-path="url(#clip_4)">
		<path fill="rgb(0,0,0)" fill-opacity="0.52156866" stroke="none" transform="translate(49.5 94)" d="M0 0.5C0 0.223858 0.223858 0 0.5 0C0.776142 0 1 0.223858 1 0.5C1 0.776142 0.776142 1 0.5 1C0.223858 1 0 0.776142 0 0.5Z"/>
	</g>
	<defs>
		<clipPath id="clip_5">
			<rect width="100" height="100" clip-rule="evenodd"/>
		</clipPath>
	</defs>
	<g clip-path="url(#clip_5)">
		<path fill="rgb(0,0,0)" fill-opacity="0.52156866" stroke="none" transform="translate(49.5 90)" d="M0 0.5C0 0.223858 0.223858 0 0.5 0C0.776142 0 1 0.223858 1 0.5C1 0.776142 0.776142 1 0.5 1C0.223858 1 0 0.776142 0 0.5Z"/>
	</g>
	<defs>
		<clipPath id="clip_6">
			<rect width="100" height="100" clip-rule="evenodd"/>
		</clipPath>
	</defs>
	<g clip-path="url(#clip_6)">
		<path fill="rgb(0,0,0)" fill-opacity="0.52156866" stroke="none" transform="translate(49.5 98)" d="M0 0.5C0 0.223858 0.223858 0 0.5 0C0.776142 0 1 0.223858 1 0.5C1 0.776142 0.776142 1 0.5 1C0.223858 1 0 0.776142 0 0.5Z"/>
	</g>
	<defs>
		<clipPath id="clip_7">
			<rect width="100" height="100" clip-rule="evenodd"/>
		</clipPath>
	</defs>
	<g clip-path="url(#clip_7)">
		<path fill="currentColor" stroke="none" transform="translate(40 72)" d="M0 1.5L5 7.5L10 3.5L2.5 0L0 1.5Z"/>
	</g>
	<defs>
		<clipPath id="clip_8">
			<rect width="100" height="100" clip-rule="evenodd"/>
		</clipPath>
	</defs>
	<g clip-path="url(#clip_8)">
		<path fill="currentColor" stroke="none" transform="matrix(-1 0 0 1 60 72)" d="M0 1.5L5 7.5L10 3.5L2.5 0L0 1.5Z"/>
	</g>
	<defs>
		<clipPath id="clip_9">
			<rect width="100" height="100" clip-rule="evenodd"/>
		</clipPath>
	</defs>
	<g clip-path="url(#clip_9)">
		<path fill="rgb(0,0,0)" fill-opacity="0.32156864" stroke="none" transform="translate(40 72)" d="M0 1.5L5 7.5L10 3.5L2.5 0L0 1.5Z"/>
	</g>
	<defs>
		<clipPath id="clip_10">
			<rect width="100" height="100" clip-rule="evenodd"/>
		</clipPath>
	</defs>
	<g clip-path="url(#clip_10)">
		<path fill="rgb(0,0,0)" fill-opacity="0.32156864" stroke="none" transform="matrix(-1 0 0 1 60 72)" d="M0 1.5L5 7.5L10 3.5L2.5 0L0 1.5Z"/>
	</g>

</svg>