<svg width="100" height="100" viewBox="0 0 100 100" fill="none" xmlns="http://www.w3.org/2000/svg">
  <g clip-path="url(#background)">
    <path fill-rule="evenodd" clip-rule="evenodd" d="M41.0367 73H41C16.6298 73.4874 16.0159 83.4773 15.0741 98.8013L15.0741 98.8013C15.0497 99.1973 15.0252 99.5969 15 100H85C84.9748 99.5969 84.9502 99.1973 84.9259 98.8013C83.9841 83.4773 83.3702 73.4874 59 73H58.9633C58.9876 73.1647 59 73.3315 59 73.5C59 76.5376 54.9706 79 50 79C45.0294 79 41 76.5376 41 73.5C41 73.3315 41.0124 73.1647 41.0367 73Z" fill="currentColor"/>
    <path d="M38 90.5V80H40V90.5C40 92 38 92 38 90.5Z" fill="white"/>
    <path d="M61 93.5484V80H63V93.5484C63 95.4839 61 95.4839 61 93.5484Z" fill="white"/>
    <path fill-rule="evenodd" clip-rule="evenodd" d="M32.0834 73.754C32.9878 76.4701 33.9223 77.9889 36 80C38.3851 82.3087 40.9362 83.3409 43.5 84C37.4609 80.1534 35.1561 77.7059 33.7969 73.4991C33.2065 73.5758 32.6355 73.6608 32.0834 73.754Z" fill="black" fill-opacity="0.3"/>
    <path fill-rule="evenodd" clip-rule="evenodd" d="M66.8322 73.585C65.4892 78.0489 63.2346 80.5289 57 84.5C59.5638 83.8409 62.1149 82.8087 64.5 80.5C66.5348 78.5304 67.9246 76.5816 68.857 73.9242C68.2098 73.799 67.5353 73.6858 66.8322 73.585Z" fill="black" fill-opacity="0.3"/>
    <path fill-rule="evenodd" clip-rule="evenodd" d="M40.5032 81.9809C39.4332 81.2067 38.5266 80.4737 37.7514 79.7458L38 79H41L40.5032 81.9809Z" fill="currentColor"/>
    <path fill-rule="evenodd" clip-rule="evenodd" d="M63.2518 79.7553C62.5903 80.4257 61.8233 81.0935 60.9258 81.7871L60.5 82L60 79H63L63.2518 79.7553Z" fill="currentColor"/>
  </g>
</svg>
