<?xml version="1.0" encoding="utf-8" ?>
<svg xmlns="http://www.w3.org/2000/svg" xmlns:xlink="http://www.w3.org/1999/xlink" width="100" height="100">
	<path fill="currentColor" stroke="none" transform="translate(16.7881 73)" d="M23.2119 0L18.2119 0Q17.8408 0 17.4714 0.0122403Q17.102 0.0244806 16.7347 0.048948Q16.3674 0.0734155 16.0026 0.110084Q15.6379 0.146752 15.276 0.195582Q14.9142 0.244412 14.5556 0.305352Q14.1971 0.366291 13.8422 0.439275Q13.4873 0.512259 13.1365 0.597208Q12.7857 0.682158 12.4393 0.778982Q12.0929 0.875807 11.7513 0.984403Q11.4097 1.093 11.0733 1.21325Q10.7369 1.3335 10.4061 1.46528Q10.0752 1.59705 9.75022 1.74022Q9.42524 1.88338 9.10649 2.03777Q8.78774 2.19217 8.47557 2.35763Q8.1634 2.52309 7.85815 2.69943Q7.55289 2.87578 7.25487 3.06283Q6.95684 3.24988 6.66638 3.44743Q6.37592 3.64498 6.09332 3.85282Q5.81073 4.06066 5.5363 4.27856Q5.26188 4.49646 4.99592 4.7242Q4.72996 4.95194 4.47275 5.18926Q4.21554 5.42658 3.96736 5.67324Q3.71917 5.9199 3.48028 6.17563Q3.24139 6.43136 3.01204 6.69588Q2.7827 6.96041 2.56314 7.23345Q2.34359 7.50648 2.13406 7.78774Q1.92454 8.069 1.72526 8.35818Q1.52599 8.64735 1.33718 8.94414Q1.14837 9.24093 0.970232 9.54501Q0.792092 9.84909 0.62481 10.1601Q0.457528 10.4712 0.301283 10.7889Q0.145039 11.1065 0 11.4305C8.12932 20.5975 19.9959 26.375 33.2119 26.375C46.4279 26.375 58.2945 20.5975 66.4238 11.4305Q66.2788 11.1065 66.1225 10.7889Q65.9663 10.4712 65.799 10.1601Q65.6317 9.84909 65.4536 9.54501Q65.2754 9.24093 65.0866 8.94415Q64.8978 8.64736 64.6985 8.35818Q64.4993 8.069 64.2897 7.78774Q64.0802 7.50649 63.8607 7.23345Q63.6411 6.96041 63.4118 6.69589Q63.1824 6.43136 62.9435 6.17563Q62.7046 5.9199 62.4564 5.67324Q62.2083 5.42659 61.9511 5.18926Q61.6938 4.95194 61.4279 4.7242Q61.1619 4.49647 60.8875 4.27856Q60.6131 4.06066 60.3305 3.85282Q60.0479 3.64498 59.7574 3.44743Q59.467 3.24988 59.1689 3.06283Q58.8709 2.87579 58.5657 2.69944Q58.2604 2.52309 57.9482 2.35763Q57.6361 2.19217 57.3173 2.03777Q56.9986 1.88338 56.6736 1.74022Q56.3486 1.59705 56.0177 1.46528Q55.6869 1.3335 55.3505 1.21325Q55.0141 1.093 54.6725 0.984403Q54.3309 0.875807 53.9845 0.778983Q53.6381 0.682158 53.2873 0.597208Q52.9365 0.512259 52.5816 0.439275Q52.2268 0.366292 51.8682 0.305352Q51.5096 0.244413 51.1478 0.195582Q50.7859 0.146752 50.4212 0.110084Q50.0564 0.0734155 49.6891 0.048948Q49.3218 0.0244806 48.9524 0.0122403Q48.583 0 48.2119 0L43.2119 0C43.2119 2.76142 38.7347 5 33.2119 5C27.6891 5 23.2119 2.76142 23.2119 0Z" fill-rule="evenodd"/>
</svg>