<svg width="100" height="100" viewBox="0 0 100 100" fill="none" xmlns="http://www.w3.org/2000/svg">
  <g clip-path="url(#background)">
    <path fill-rule="evenodd" clip-rule="evenodd" d="M40.8321 73H35C34.7526 73 34.5057 73.0041 34.2594 73.0122C34.0131 73.0204 33.7676 73.0326 33.5227 73.049C33.2778 73.0653 33.0338 73.0857 32.7906 73.1101C32.5474 73.1346 32.3052 73.1631 32.0639 73.1956C31.8226 73.2282 31.5825 73.2648 31.3434 73.3054C31.1043 73.346 30.8665 73.3907 30.6299 73.4394C30.3933 73.488 30.158 73.5407 29.9241 73.5973C29.6902 73.654 29.4578 73.7146 29.2269 73.7791C28.9959 73.8437 28.7665 73.9122 28.5388 73.9846C28.3111 74.057 28.0851 74.1333 27.8608 74.2135C27.6365 74.2937 27.4141 74.3777 27.1935 74.4656C26.9729 74.5534 26.7543 74.6451 26.5376 74.7406C26.3209 74.836 26.1063 74.9352 25.8938 75.0382C25.6813 75.1411 25.471 75.2478 25.2628 75.3581C25.0547 75.4684 24.8489 75.5824 24.6454 75.7C24.4418 75.8176 24.2407 75.9387 24.042 76.0634C23.8433 76.1882 23.6472 76.3164 23.4535 76.4481C23.2599 76.5798 23.0688 76.715 22.8804 76.8536C22.692 76.9922 22.5063 77.1341 22.3234 77.2794C22.1404 77.4247 21.9603 77.5733 21.783 77.7251C21.6057 77.877 21.4313 78.032 21.2598 78.1903C21.0883 78.3485 20.9199 78.5099 20.7544 78.6743C20.5889 78.8388 20.4266 79.0063 20.2673 79.1768C20.108 79.3473 19.952 79.5208 19.7991 79.6972C19.6462 79.8736 19.4965 80.0528 19.3502 80.2348C19.2038 80.4169 19.0608 80.6017 18.9211 80.7892C18.7814 80.9768 18.6452 81.1669 18.5123 81.3598C18.3795 81.5526 18.2501 81.7479 18.1243 81.9458C17.9984 82.1437 17.8761 82.344 17.7573 82.5468C17.6386 82.7496 17.5234 82.9546 17.4119 83.162C17.3004 83.3694 17.1926 83.579 17.0884 83.7909C16.9843 84.0027 15 87 15 100C36 100 36.7971 100 50 100C63.221 100 63.5 100 85 100C85 87 82.7935 83.542 82.57 83.1283C82.3465 82.7147 82.1088 82.3105 81.8567 81.9158C81.6046 81.5212 81.3388 81.1368 81.0593 80.7628C80.7798 80.3888 80.487 80.026 80.1811 79.6742C79.8752 79.3225 79.5569 78.9827 79.226 78.6548C78.8951 78.3268 78.5524 78.0115 78.1979 77.7087C77.8434 77.4059 77.4778 77.1164 77.1013 76.8401C76.7247 76.5638 76.3379 76.3013 75.9408 76.0526C75.5437 75.804 75.1373 75.5697 74.7215 75.3497C74.3056 75.1298 73.8813 74.9247 73.4484 74.7344C73.0156 74.5441 72.5752 74.369 72.1271 74.2091C71.6791 74.0493 71.2245 73.905 70.7632 73.7763C70.3019 73.6476 69.835 73.5348 69.3625 73.4378C68.89 73.3408 68.4128 73.2598 67.931 73.1949C67.4492 73.13 66.9638 73.0813 66.4748 73.0488C65.9857 73.0163 65.4941 73 65 73H59.168C57.6248 74.7659 54.1007 76 50 76C45.8994 76 42.3752 74.7659 40.8321 73Z" fill="currentColor"/>
  </g>
</svg>
