<?xml version="1.0" encoding="utf-8" ?>
<svg xmlns="http://www.w3.org/2000/svg" xmlns:xlink="http://www.w3.org/1999/xlink" width="100" height="100">
	<path fill="rgb(0,0,0)" stroke="none" transform="translate(36 30)" d="M0.736261 0C0.399994 0.47296 -0.171961 1.2765 0.0497109 3C1.79375 3.4255 6.30255 3.26325 8.97486 3C9.23366 0.465252 8.92826 0.868376 8.63158 0C7.23955 1.67354 7.17021 0.757168 6.57193 0C5.76944 1.78475 5.41215 0.956665 4.85556 0C4.3361 0.584707 3.99737 1 3.48246 1C2.96755 1 3.11361 0.432667 2.79591 0C2.49678 0.405624 2.281 1 1.76609 1C1.25117 1 1.22105 0.63575 0.736261 0Z"/>
	<path fill="rgb(0,0,0)" stroke="none" transform="matrix(-1 0 0 1 64.0724 30)" d="M0.736259 0C0.399993 0.47296 -0.171962 1.2765 0.0497093 3C1.79375 3.4255 6.30255 3.26325 8.97486 3C9.23366 0.465252 8.92826 0.868376 8.63158 0C7.23955 1.67354 7.17021 0.757168 6.57193 0C5.76944 1.78475 5.41215 0.956665 4.85556 0C4.3361 0.584707 3.99737 1 3.48246 1C2.96755 1 3.11361 0.432667 2.79591 0C2.49677 0.405624 2.281 1 1.76608 1C1.25117 1 1.22105 0.63575 0.736259 0Z"/>
</svg>