<svg width="100" height="100" viewBox="0 0 100 100" fill="none" xmlns="http://www.w3.org/2000/svg">
<g>
<path fill-rule="evenodd" clip-rule="evenodd" d="M43 51.5851C43.0752 51.1311 43.458 50.7121 44.0663 50.4178C44.6747 50.1235 45.4601 49.9774 46.2544 50.0107C46.9435 49.9976 47.6214 50.1129 48.1863 50.3393C48.7512 50.5657 49.1725 50.891 49.3869 51.2662H49.5087C49.7229 50.8849 50.1515 50.555 50.7276 50.3279C51.3038 50.1008 51.995 49.9892 52.6934 50.0107C53.4877 49.9774 54.2731 50.1235 54.8815 50.4178C55.4898 50.7121 55.8726 51.1311 55.9478 51.5851C55.9478 51.6448 55.9478 51.6947 55.9478 51.7544C55.9478 51.8142 55.9478 51.9537 55.9478 52.0534C55.9827 52.5597 55.842 53.0649 55.534 53.54C55.226 54.015 54.7566 54.4504 54.1531 54.8209C53.5495 55.1915 52.8237 55.49 52.0176 55.6991C51.2115 55.9082 50.3411 56.0237 49.4565 56.0391C48.5719 56.0237 47.7015 55.9082 46.8954 55.6991C46.0892 55.49 45.3635 55.1915 44.7599 54.8209C44.1564 54.4504 43.687 54.015 43.379 53.54C43.0709 53.0649 42.9303 52.5597 42.9652 52.0534C42.9652 51.9537 42.9652 51.8541 42.9652 51.7544C42.9652 51.6548 43 51.6448 43 51.5851Z" fill="#A4170D"/>
<path fill-rule="evenodd" clip-rule="evenodd" d="M43.0522 51.316C43.0084 51.4611 43.0084 51.6094 43.0522 51.7545C43.0522 51.8541 43.0522 51.9537 43.0522 52.0534C43.0173 52.5597 43.158 53.065 43.466 53.54C43.774 54.015 44.2434 54.4504 44.8469 54.8209C45.4505 55.1915 46.1763 55.49 46.9824 55.6991C47.7885 55.9082 48.659 56.0237 49.5435 56.0391V56.0391C50.4281 56.0237 51.2985 55.9082 52.1047 55.6991C52.9108 55.49 53.6365 55.1915 54.2401 54.8209C54.8436 54.4504 55.313 54.015 55.621 53.54C55.9291 53.065 56.0697 52.5597 56.0348 52.0534C56.0348 51.9537 56.0348 51.8541 56.0348 51.7545C52.3976 53.0598 45.332 53.3288 43.1044 51.326L43.0522 51.316Z" fill="black" fill-opacity="0.22"/>
</g>
</svg>
