<?xml version="1.0" encoding="utf-8" ?>
<svg xmlns="http://www.w3.org/2000/svg" xmlns:xlink="http://www.w3.org/1999/xlink" width="100" height="100">
	<path fill="rgb(164,23,13)" stroke="none" transform="translate(43 50.1)" d="M0 1.57895C0 0.706919 1.567 0 3.5 0C5.19327 0 6.6057 0.54245 6.92999 1.26316L7.07001 1.26316C7.3943 0.54245 8.80673 0 10.5 0C12.433 0 14 0.706919 14 1.57895C14 1.63671 13.9931 1.69375 13.9797 1.74991C13.9932 1.84982 14 1.95078 14 2.05263C14 4.23157 10.8692 5.99817 7.00602 6L6.99398 6C3.13075 5.99817 0 4.23157 0 2.05263C0 1.95078 0.00684106 1.84982 0.0202782 1.74991C0.00687576 1.69375 0 1.63671 0 1.57895Z" fill-rule="evenodd"/>
	<path fill="rgb(0,0,0)" fill-opacity="0.21960784" stroke="none" transform="translate(43 51.4074)" d="M0.0515635 -1.76319e-06C0.0176671 0.0882196 0 0.178951 0 0.271544C0 0.329308 0.00687573 0.386347 0.0202781 0.442504C0.00684103 0.542419 0 0.643373 0 0.745228C0 2.92465 3.13213 4.69154 6.99652 4.6926L7.00348 4.6926C10.8679 4.69154 14 2.92465 14 0.745228C14 0.643373 13.9932 0.542419 13.9797 0.442504C13.9803 0.440236 13.9808 0.437966 13.9813 0.435695C10.0639 1.74416 2.44971 2.00845 0.0515635 -1.76319e-06L0.0515635 -1.76319e-06Z" fill-rule="evenodd"/>
</svg>