<?xml version="1.0" encoding="utf-8" ?>
<svg xmlns="http://www.w3.org/2000/svg" xmlns:xlink="http://www.w3.org/1999/xlink" width="100" height="100">
	<path fill="rgb(33,26,3)" stroke="none" transform="translate(42 52)" d="M1 0L15 0Q15.1027 0 15.2014 0.0186045Q15.3002 0.037209 15.3917 0.0738122Q15.4832 0.110415 15.5645 0.163826Q15.6458 0.217236 15.7143 0.285714Q15.7828 0.354193 15.8362 0.43551Q15.8896 0.516827 15.9262 0.608335Q15.9628 0.699843 15.9814 0.798563Q16 0.897283 16 1L16 1Q16 1.10272 15.9814 1.20144Q15.9628 1.30016 15.9262 1.39167Q15.8896 1.48317 15.8362 1.56449Q15.7828 1.64581 15.7143 1.71429Q15.6458 1.78276 15.5645 1.83617Q15.4832 1.88958 15.3917 1.92619Q15.3002 1.96279 15.2014 1.9814Q15.1027 2 15 2L1 2Q0.897283 2 0.798563 1.9814Q0.699843 1.96279 0.608335 1.92619Q0.516827 1.88958 0.43551 1.83617Q0.354193 1.78276 0.285714 1.71429Q0.217236 1.64581 0.163826 1.56449Q0.110415 1.48317 0.0738122 1.39167Q0.037209 1.30016 0.0186045 1.20144Q0 1.10272 0 1L0 1Q0 0.897283 0.0186045 0.798563Q0.037209 0.699843 0.0738122 0.608335Q0.110415 0.516827 0.163826 0.43551Q0.217236 0.354193 0.285714 0.285714Q0.354193 0.217236 0.43551 0.163826Q0.516827 0.110415 0.608335 0.0738122Q0.699843 0.037209 0.798563 0.0186045Q0.897283 0 1 0Z"/>
</svg>