<?xml version="1.0" encoding="utf-8" ?>
<svg xmlns="http://www.w3.org/2000/svg" xmlns:xlink="http://www.w3.org/1999/xlink" width="100" height="100">
	<path fill="rgb(33,26,3)" stroke="none" transform="translate(42 52)" d="M0 0L16 0L16 1C16 1 15.5556 5.07407 8 5C0.444443 4.92593 0 1 0 1L0 0Z"/>
	<path fill="rgb(255,255,255)" stroke="none" transform="translate(44 52)" d="M0 0L12 0L12 1L0 1L0 0Z"/>
	<path fill="rgb(255,255,255)" stroke="none" transform="translate(45 56)" d="M5.40272 1L5 1C2.77193 0.978156 1.16225 0.621352 3.71925e-15 0.12904L0 0L10 0L10 0.194201C8.90898 0.653006 7.42369 0.979743 5.40272 1Z" fill-rule="evenodd"/>
</svg>