<?xml version="1.0" encoding="utf-8" ?>
<svg xmlns="http://www.w3.org/2000/svg" xmlns:xlink="http://www.w3.org/1999/xlink" width="100" height="100">
	<path fill="rgb(33,26,3)" stroke="none" transform="translate(42 53)" d="M0 0L16 0L16 1C16 1 15.5556 5.07407 8 5C0.444443 4.92593 0 1 0 1L0 0Z"/>
	<path fill="rgb(222,47,99)" stroke="none" transform="translate(46 54)" d="M0 0L8 0L8 4L0 4L0 0Z"/>
	<path fill="rgb(222,47,99)" stroke="none" transform="translate(46 55)" d="M0 3C0 1.34315 1.79086 0 4 0C6.20914 0 8 1.34315 8 3C8 4.65685 6.20914 6 4 6C1.79086 6 0 4.65685 0 3Z"/>
</svg>