<svg width="100" height="102" viewBox="0 0 100 102" fill="none" xmlns="http://www.w3.org/2000/svg">
<path d="M30.1081 14.5134C32.0405 22.0403 31.6068 28.5772 29.1148 29.2449C26.6229 29.9126 23.2375 24.8426 21.1111 17.7738L25 21L20.5223 15.6159C20.3118 14.8302 20.1051 14.0586 20.0222 13.2764L25 17.5L19.659 10.9753C19.5366 10.0458 19.4649 9.14774 19.4298 8.30757L24.5 13.5L19.4335 6.19392C19.594 3.44429 20.3095 1.58352 21.6096 1.23514C23.0871 0.839265 24.9609 2.59267 26.6839 5.63455L25.5 11.5L27.2675 6.74878C27.6398 7.46852 27.9976 8.25229 28.3372 9.08607L27 15L28.8228 10.3468C29.1003 11.107 29.3658 11.9005 29.6171 12.7203L27.5 19.5L30.1081 14.5134Z" fill="#AA0004"/>
</svg>
