<?xml version="1.0" encoding="utf-8" ?>
<svg xmlns="http://www.w3.org/2000/svg" xmlns:xlink="http://www.w3.org/1999/xlink" width="100" height="100">
	<rect fill="rgb(255,255,255)" fill-opacity="0" stroke="none" width="100" height="100"/>
	<defs>
		<clipPath id="clip_0">
			<rect width="100" height="100" clip-rule="evenodd"/>
		</clipPath>
	</defs>
	<g clip-path="url(#clip_0)">
		<path fill="rgb(250,118,255)" stroke="none" transform="matrix(0.240527 0.970642 -0.970642 0.240527 71.8939 11.438)" d="M0 4C0 1.79086 1.567 0 3.5 0C5.433 0 7 1.79086 7 4C7 6.20914 5.433 8 3.5 8C1.567 8 0 6.20914 0 4Z"/>
	</g>
	<defs>
		<clipPath id="clip_1">
			<rect width="100" height="100" clip-rule="evenodd"/>
		</clipPath>
	</defs>
	<g clip-path="url(#clip_1)">
		<path fill="rgb(250,118,255)" stroke="none" transform="matrix(0.240527 0.970642 -0.970642 0.240527 62.1875 13.8433)" d="M0 4C0 1.79086 1.567 0 3.5 0C5.433 0 7 1.79086 7 4C7 6.20914 5.433 8 3.5 8C1.567 8 0 6.20914 0 4Z"/>
	</g>
	<defs>
		<clipPath id="clip_2">
			<rect width="100" height="100" clip-rule="evenodd"/>
		</clipPath>
	</defs>
	<g clip-path="url(#clip_2)">
		<path fill="rgb(250,118,255)" stroke="none" transform="matrix(0.967245 -0.253844 0.253844 0.967245 60.8685 18.8557)" d="M0 4C0 1.79086 1.567 0 3.5 0C5.433 0 7 1.79086 7 4C7 6.20914 5.433 8 3.5 8C1.567 8 0 6.20914 0 4Z"/>
	</g>
	<defs>
		<clipPath id="clip_3">
			<rect width="100" height="100" clip-rule="evenodd"/>
		</clipPath>
	</defs>
	<g clip-path="url(#clip_3)">
		<path fill="rgb(250,118,255)" stroke="none" transform="matrix(0.967245 -0.253844 0.253844 0.967245 58.33 9.18323)" d="M0 4C0 1.79086 1.567 0 3.5 0C5.433 0 7 1.79086 7 4C7 6.20914 5.433 8 3.5 8C1.567 8 0 6.20914 0 4Z"/>
	</g>
	<defs>
		<clipPath id="clip_4">
			<rect width="100" height="100" clip-rule="evenodd"/>
		</clipPath>
	</defs>
	<g clip-path="url(#clip_4)">
		<path fill="rgb(250,232,0)" stroke="none" transform="translate(60 13)" d="M0 4C0 1.79086 1.79086 0 4 0C6.20914 0 8 1.79086 8 4C8 6.20914 6.20914 8 4 8C1.79086 8 0 6.20914 0 4Z"/>
	</g>

</svg>