<?xml version="1.0" encoding="utf-8" ?>
<svg xmlns="http://www.w3.org/2000/svg" xmlns:xlink="http://www.w3.org/1999/xlink" width="100" height="100">
	<path fill="rgb(250,118,255)" stroke="none" transform="matrix(0.240527 0.970642 -0.970642 0.240527 71.8939 11.438)" d="M0 4C0 1.79086 1.567 0 3.5 0C5.433 0 7 1.79086 7 4C7 6.20914 5.433 8 3.5 8C1.567 8 0 6.20914 0 4Z"/>
	<path fill="rgb(250,118,255)" stroke="none" transform="matrix(0.240527 0.970642 -0.970642 0.240527 62.1875 13.8433)" d="M0 4C0 1.79086 1.567 0 3.5 0C5.433 0 7 1.79086 7 4C7 6.20914 5.433 8 3.5 8C1.567 8 0 6.20914 0 4Z"/>
	<path fill="rgb(250,118,255)" stroke="none" transform="matrix(0.967245 -0.253844 0.253844 0.967245 60.8685 18.8557)" d="M0 4C0 1.79086 1.567 0 3.5 0C5.433 0 7 1.79086 7 4C7 6.20914 5.433 8 3.5 8C1.567 8 0 6.20914 0 4Z"/>
	<path fill="rgb(250,118,255)" stroke="none" transform="matrix(0.967245 -0.253844 0.253844 0.967245 58.33 9.18323)" d="M0 4C0 1.79086 1.567 0 3.5 0C5.433 0 7 1.79086 7 4C7 6.20914 5.433 8 3.5 8C1.567 8 0 6.20914 0 4Z"/>
	<path fill="rgb(250,232,0)" stroke="none" transform="translate(60 13)" d="M0 4C0 1.79086 1.79086 0 4 0C6.20914 0 8 1.79086 8 4C8 6.20914 6.20914 8 4 8C1.79086 8 0 6.20914 0 4Z"/>
</svg>