<svg width="100" height="100" viewBox="0 0 100 100" fill="none" xmlns="http://www.w3.org/2000/svg">
<path d="M25 17H75C75.0685 17 75.1356 17.0062 75.2014 17.0186C75.2673 17.031 75.3307 17.0494 75.3917 17.0738C75.4527 17.0982 75.5103 17.1282 75.5645 17.1638C75.6187 17.1994 75.6686 17.2401 75.7143 17.2857C75.76 17.3314 75.8006 17.3813 75.8362 17.4355C75.8718 17.4897 75.9018 17.5473 75.9262 17.6083C75.9506 17.6693 75.969 17.7327 75.9814 17.7986C75.9938 17.8644 76 17.9315 76 18V25C76 25.0685 75.9938 25.1356 75.9814 25.2014C75.969 25.2673 75.9506 25.3307 75.9262 25.3917C75.9018 25.4527 75.8718 25.5103 75.8362 25.5645C75.8006 25.6187 75.76 25.6686 75.7143 25.7143C75.6686 25.7599 75.6187 25.8006 75.5645 25.8362C75.5103 25.8718 75.4527 25.9018 75.3917 25.9262C75.3307 25.9506 75.2673 25.969 75.2014 25.9814C75.1356 25.9938 75.0685 26 75 26H25C24.9315 26 24.8644 25.9938 24.7986 25.9814C24.7327 25.969 24.6693 25.9506 24.6083 25.9262C24.5473 25.9018 24.4897 25.8718 24.4355 25.8362C24.3813 25.8006 24.3314 25.7599 24.2857 25.7143C24.2401 25.6686 24.1994 25.6187 24.1638 25.5645C24.1282 25.5103 24.0982 25.4527 24.0738 25.3917C24.0494 25.3307 24.031 25.2673 24.0186 25.2014C24.0062 25.1356 24 25.0685 24 25V18C24 17.9315 24.0062 17.8644 24.0186 17.7986C24.031 17.7327 24.0494 17.6693 24.0738 17.6083C24.0982 17.5473 24.1282 17.4897 24.1638 17.4355C24.1994 17.3813 24.2401 17.3314 24.2857 17.2857C24.3314 17.2401 24.3813 17.1994 24.4355 17.1638C24.4897 17.1282 24.5473 17.0982 24.6083 17.0738C24.6693 17.0494 24.7327 17.031 24.7986 17.0186C24.8644 17.0062 24.9315 17 25 17Z" fill="#211A03"/>
<path d="M42 16H58V26H42V16Z" fill="#686868"/>
<circle cx="50" cy="21" r="3.5" stroke="white"/>
</svg>
