<?xml version="1.0" encoding="utf-8" ?>
<svg xmlns="http://www.w3.org/2000/svg" xmlns:xlink="http://www.w3.org/1999/xlink" width="100" height="100">
	<path fill="rgb(33,26,3)" stroke="none" transform="translate(24 17)" d="M1 0L51 0Q51.1027 0 51.2014 0.0186045Q51.3002 0.037209 51.3917 0.0738122Q51.4832 0.110415 51.5645 0.163826Q51.6458 0.217236 51.7143 0.285714Q51.7828 0.354193 51.8362 0.43551Q51.8896 0.516827 51.9262 0.608335Q51.9628 0.699843 51.9814 0.798563Q52 0.897283 52 1L52 8Q52 8.10272 51.9814 8.20144Q51.9628 8.30016 51.9262 8.39167Q51.8896 8.48317 51.8362 8.56449Q51.7828 8.64581 51.7143 8.71429Q51.6458 8.78276 51.5645 8.83617Q51.4832 8.88958 51.3917 8.92619Q51.3002 8.96279 51.2014 8.9814Q51.1027 9 51 9L1 9Q0.897283 9 0.798563 8.9814Q0.699843 8.96279 0.608335 8.92619Q0.516827 8.88958 0.43551 8.83617Q0.354193 8.78276 0.285714 8.71429Q0.217236 8.64581 0.163826 8.56449Q0.110415 8.48317 0.0738122 8.39167Q0.037209 8.30016 0.0186045 8.20144Q0 8.10272 0 8L0 1Q0 0.897283 0.0186045 0.798563Q0.037209 0.699843 0.0738122 0.608335Q0.110415 0.516827 0.163826 0.43551Q0.217236 0.354193 0.285714 0.285714Q0.354193 0.217236 0.43551 0.163826Q0.516827 0.110415 0.608335 0.0738122Q0.699843 0.037209 0.798563 0.0186045Q0.897283 0 1 0Z"/>
	<path fill="rgb(104,104,104)" stroke="none" transform="translate(42 16)" d="M0 0L16 0L16 10L0 10L0 0Z"/>
	<text fill="rgb(255,255,255)" stroke="none" transform="translate(44 18)" font-size="5" font-family="SimSun, 宋体" x="1" y="4.7089844">
			忍者
	</text>
</svg>