<svg width="100" height="100" viewBox="0 0 100 100" fill="none" xmlns="http://www.w3.org/2000/svg">
<path d="M39.5 49.1771C39.5 49.1771 40.39 47.2818 42 46.1771C44.5811 44.406 49 45.1771 50.5 45.6771C52.5 45.1771 55.273 44.4434 57.5 45.6771C59.3157 46.6829 60.5 49.1771 60.5 49.1771C60.5 49.1771 58.1303 49.5419 57 49.1771C56.33 48.9608 56.6792 48.8623 56 48.6771C55.0394 48.4151 54.9606 49.439 54 49.1771C53.5788 49.0622 52.9212 48.7919 52.5 48.6771C51.5394 48.4151 51.488 49.3006 50.5 49.1771C49.8873 49.1005 49.1157 48.7244 48.5 48.6771C47.6973 48.6153 47.2859 49.3517 46.5 49.1771C46.0738 49.0823 45.4256 49.2745 45 49.1771C43.975 48.9424 43.5388 49.5142 42.5 49.6771C41.1359 49.8908 39.5 49.1771 39.5 49.1771Z" fill="black"/>
</svg>
