<?xml version="1.0" encoding="utf-8" ?>
<svg xmlns="http://www.w3.org/2000/svg" xmlns:xlink="http://www.w3.org/1999/xlink" width="100" height="100">
	<path fill="rgb(255,255,255)" stroke="none" transform="translate(39 36)" d="M0 2.5C0 1.11929 1.11929 0 2.5 0C3.88071 0 5 1.11929 5 2.5C5 3.88071 3.88071 5 2.5 5C1.11929 5 0 3.88071 0 2.5Z"/>
	<path fill="rgb(255,255,255)" stroke="none" transform="translate(56 36)" d="M0 2.5C0 1.11929 1.11929 0 2.5 0C3.88071 0 5 1.11929 5 2.5C5 3.88071 3.88071 5 2.5 5C1.11929 5 0 3.88071 0 2.5Z"/>
	<path fill="rgb(33,26,3)" stroke="none" transform="translate(42 38)" d="M0 1C0 0.447715 0.447715 0 1 0C1.55228 0 2 0.447715 2 1C2 1.55228 1.55228 2 1 2C0.447715 2 0 1.55228 0 1Z"/>
	<path fill="rgb(33,26,3)" stroke="none" transform="translate(56 38)" d="M0 1C0 0.447715 0.447715 0 1 0C1.55228 0 2 0.447715 2 1C2 1.55228 1.55228 2 1 2C0.447715 2 0 1.55228 0 1Z"/>
</svg>