<?xml version="1.0" encoding="utf-8" ?>
<svg xmlns="http://www.w3.org/2000/svg" xmlns:xlink="http://www.w3.org/1999/xlink" width="100" height="100">
	<path fill="currentColor" stroke="none" transform="translate(23 15)" d="M12 0L42 0Q42.2561 0 42.5106 0.0116575Q42.765 0.023315 43.0172 0.0466062Q43.2693 0.0698974 43.5188 0.104775Q43.7682 0.139652 44.0144 0.186045Q44.2605 0.232437 44.503 0.29025Q44.7454 0.348063 44.9835 0.417178Q45.2217 0.486294 45.4551 0.566571Q45.6885 0.646847 45.9167 0.738122Q46.1448 0.829396 46.3673 0.931482Q46.5899 1.03357 46.8062 1.14626Q47.0226 1.25895 47.2324 1.38201Q47.4421 1.50507 47.6449 1.63826Q47.8477 1.77144 48.043 1.91448Q48.2384 2.05751 48.4259 2.21011Q48.6134 2.3627 48.7928 2.52454Q48.9721 2.68638 49.1429 2.85714Q49.3136 3.0279 49.4755 3.20723Q49.6373 3.38656 49.7899 3.57409Q49.9425 3.76162 50.0855 3.95697Q50.2286 4.15232 50.3617 4.3551Q50.4949 4.55787 50.618 4.76765Q50.7411 4.97743 50.8538 5.1938Q50.9664 5.41016 51.0685 5.63266Q51.1706 5.85516 51.2619 6.08335Q51.3532 6.31153 51.4334 6.54494Q51.5137 6.77835 51.5828 7.01649Q51.652 7.25464 51.7098 7.49705Q51.7676 7.73946 51.814 7.98563Q51.8604 8.2318 51.8952 8.48123Q51.9301 8.73066 51.9534 8.98284Q51.9767 9.23502 51.9883 9.48944Q52 9.74386 52 10L52 16.2276C53.1652 16.7767 54 18.2584 54 20C54 21.7416 53.1652 23.2233 52 23.7724L52 33Q52 33.3135 51.9825 33.6243C51.9941 33.8338 52 34.0444 52 34.2558C52 41.8759 44.4001 48.3071 34 50.3348L34 58L37 58L37 70L17 70L17 58L20 58L20 50.3348C9.59992 48.3071 2 41.8759 2 34.2558C2 34.0444 2.00585 33.8338 2.01745 33.6243Q2 33.3135 2 33L2 23.7724C0.834808 23.2233 0 21.7416 0 20C0 18.2584 0.834808 16.7767 2 16.2276L2 10Q2 9.74386 2.01166 9.48944Q2.02332 9.23502 2.04661 8.98284Q2.0699 8.73066 2.10477 8.48123Q2.13965 8.2318 2.18604 7.98563Q2.23244 7.73946 2.29025 7.49705Q2.34806 7.25464 2.41718 7.01649Q2.48629 6.77835 2.56657 6.54494Q2.64685 6.31153 2.73812 6.08335Q2.8294 5.85516 2.93148 5.63266Q3.03357 5.41016 3.14626 5.1938Q3.25895 4.97743 3.38201 4.76765Q3.50507 4.55787 3.63826 4.3551Q3.77144 4.15232 3.91448 3.95697Q4.05751 3.76162 4.21011 3.57409Q4.3627 3.38656 4.52454 3.20723Q4.68638 3.0279 4.85714 2.85714Q5.0279 2.68638 5.20723 2.52454Q5.38656 2.3627 5.57409 2.21011Q5.76162 2.05751 5.95697 1.91448Q6.15232 1.77144 6.3551 1.63826Q6.55787 1.50507 6.76765 1.38201Q6.97743 1.25895 7.1938 1.14626Q7.41016 1.03357 7.63266 0.931482Q7.85516 0.829396 8.08335 0.738122Q8.31153 0.646847 8.54494 0.566571Q8.77835 0.486294 9.01649 0.417178Q9.25464 0.348063 9.49705 0.29025Q9.73946 0.232437 9.98563 0.186045Q10.2318 0.139652 10.4812 0.104775Q10.7307 0.0698974 10.9828 0.0466062Q11.235 0.023315 11.4894 0.0116575Q11.7439 0 12 0Z" fill-rule="evenodd"/>
	<path fill="rgb(0,0,0)" fill-opacity="0.2" stroke="none" transform="translate(43 65.4)" d="M0.00390282 0C3.47781 0.467736 9.59391 0.560276 13.9871 0C13.9809 1.22447 14.0154 0.489111 13.9914 1.75963C8.89375 2.70972 3.4489 2.44434 0.00820571 1.75963C0.0264263 0.542445 -0.0118552 0.788196 0.00390282 0Z"/>
</svg>