<svg width="104" height="111" viewBox="0 0 104 111" xmlns="http://www.w3.org/2000/svg">
<path fill-rule="evenodd" clip-rule="evenodd" d="M35 15H65C65.1707 15 65.3409 15.0039 65.5106 15.0117C65.6802 15.0194 65.8491 15.0311 66.0172 15.0466C66.1853 15.0621 66.3525 15.0815 66.5188 15.1048C66.6851 15.128 66.8503 15.1551 67.0144 15.186C67.1785 15.217 67.3413 15.2517 67.503 15.2903C67.6646 15.3288 67.8248 15.3711 67.9835 15.4172C68.1423 15.4633 68.2995 15.5131 68.4551 15.5666C68.6107 15.6201 68.7646 15.6773 68.9167 15.7381C69.0688 15.799 69.219 15.8634 69.3673 15.9315C69.5157 15.9995 69.662 16.0711 69.8062 16.1463C69.9505 16.2214 70.0925 16.3 70.2324 16.382C70.3722 16.464 70.5097 16.5495 70.6449 16.6383C70.7801 16.727 70.9128 16.8191 71.043 16.9145C71.1733 17.0098 71.3009 17.1084 71.4259 17.2101C71.5509 17.3118 71.6732 17.4166 71.7928 17.5245C71.9123 17.6324 72.029 17.7433 72.1429 17.8571C72.2567 17.971 72.3676 18.0877 72.4755 18.2072C72.5834 18.3268 72.6882 18.4491 72.7899 18.5741C72.8916 18.6991 72.9902 18.8267 73.0855 18.957C73.1809 19.0872 73.273 19.2199 73.3617 19.3551C73.4505 19.4903 73.5359 19.6278 73.618 19.7677C73.7001 19.9075 73.7787 20.0496 73.8538 20.1938C73.9289 20.338 74.0004 20.4843 74.0685 20.6327C74.1366 20.781 74.201 20.9312 74.2619 21.0834C74.3228 21.2355 74.3799 21.3893 74.4334 21.5449C74.4869 21.7005 74.5367 21.8577 74.5828 22.0165C74.6289 22.1753 74.6713 22.3354 74.7098 22.497C74.7483 22.6587 74.7831 22.8215 74.814 22.9856C74.8449 23.1497 74.872 23.3149 74.8952 23.4812C74.9185 23.6475 74.9379 23.8147 74.9534 23.9828C74.9689 24.151 74.9806 24.3198 74.9883 24.4894C74.9961 24.6591 75 24.8292 75 25V31.2276C76.1652 31.7767 77 33.2584 77 35C77 36.7416 76.1652 38.2233 75 38.7724V48C75 48.209 74.9942 48.4171 74.9825 48.6243C74.9941 48.8338 75 49.0444 75 49.2558C75 56.8759 67.4001 63.3071 57 65.3348V73H60L68.9167 78.5L70 90H30L31.5449 78.5L40 73H43V65.3348C32.5999 63.3071 25 56.8759 25 49.2558C25 49.0444 25.0059 48.8338 25.0175 48.6243C25.0058 48.4171 25 48.209 25 48V38.7724C23.8348 38.2233 23 36.7416 23 35C23 33.2584 23.8348 31.7767 25 31.2276V25C25 24.8292 25.0039 24.6591 25.0117 24.4894C25.0194 24.3198 25.0311 24.151 25.0466 23.9828C25.0621 23.8147 25.0815 23.6475 25.1048 23.4812C25.128 23.3149 25.1551 23.1497 25.186 22.9856C25.217 22.8215 25.2517 22.6587 25.2903 22.497C25.3288 22.3354 25.3711 22.1753 25.4172 22.0165C25.4633 21.8577 25.5131 21.7005 25.5666 21.5449C25.6201 21.3893 25.6773 21.2355 25.7381 21.0834C25.799 20.9312 25.8634 20.781 25.9315 20.6327C25.9995 20.4843 26.0711 20.338 26.1463 20.1938C26.2214 20.0496 26.3 19.9075 26.382 19.7677C26.464 19.6278 26.5495 19.4903 26.6383 19.3551C26.727 19.2199 26.8191 19.0872 26.9145 18.957C27.0098 18.8267 27.1084 18.6991 27.2101 18.5741C27.3118 18.4491 27.4166 18.3268 27.5245 18.2072C27.6324 18.0877 27.7433 17.971 27.8571 17.8571C27.971 17.7433 28.0877 17.6324 28.2072 17.5245C28.3268 17.4166 28.4491 17.3118 28.5741 17.2101C28.6991 17.1084 28.8267 17.0098 28.957 16.9145C29.0872 16.8191 29.2199 16.727 29.3551 16.6383C29.4903 16.5495 29.6278 16.464 29.7677 16.382C29.9075 16.3 30.0496 16.2214 30.1938 16.1463C30.338 16.0711 30.4843 15.9995 30.6327 15.9315C30.781 15.8634 30.9312 15.799 31.0834 15.7381C31.2355 15.6773 31.3893 15.6201 31.5449 15.5666C31.7005 15.5131 31.8577 15.4633 32.0165 15.4172C32.1753 15.3711 32.3354 15.3288 32.4971 15.2903C32.6587 15.2517 32.8215 15.217 32.9856 15.186C33.1497 15.1551 33.3149 15.128 33.4812 15.1048C33.6475 15.0815 33.8147 15.0621 33.9828 15.0466C34.1509 15.0311 34.3198 15.0194 34.4894 15.0117C34.6591 15.0039 34.8293 15 35 15Z" fill="currentColor"/>
<path d="M43.0039 65.4C46.4778 65.8677 52.5939 65.9603 56.9871 65.4C56.9809 66.6245 57.0154 65.8891 56.9914 67.1596C51.8937 68.1097 46.4489 67.8443 43.0082 67.1596C43.0264 65.9424 42.9881 66.1882 43.0039 65.4Z" fill="black" fill-opacity="0.2"/>
</svg>
