<?xml version="1.0" encoding="utf-8" ?>
<svg xmlns="http://www.w3.org/2000/svg" xmlns:xlink="http://www.w3.org/1999/xlink" width="100" height="100">
	<path fill="rgb(172,138,26)" stroke="none" transform="translate(23 18)" d="M1 0L53 0Q53.1027 0 53.2014 0.0186045Q53.3002 0.037209 53.3917 0.0738122Q53.4832 0.110415 53.5645 0.163826Q53.6458 0.217236 53.7143 0.285714Q53.7828 0.354193 53.8362 0.43551Q53.8896 0.516827 53.9262 0.608335Q53.9628 0.699843 53.9814 0.798563Q54 0.897283 54 1L54 6Q54 6.10272 53.9814 6.20144Q53.9628 6.30016 53.9262 6.39167Q53.8896 6.48317 53.8362 6.56449Q53.7828 6.64581 53.7143 6.71429Q53.6458 6.78276 53.5645 6.83617Q53.4832 6.88959 53.3917 6.92619Q53.3002 6.96279 53.2014 6.9814Q53.1027 7 53 7L1 7Q0.897283 7 0.798563 6.9814Q0.699843 6.96279 0.608335 6.92619Q0.516827 6.88959 0.43551 6.83617Q0.354193 6.78276 0.285714 6.71429Q0.217236 6.64581 0.163826 6.56449Q0.110415 6.48317 0.0738122 6.39167Q0.037209 6.30016 0.0186045 6.20144Q0 6.10272 0 6L0 1Q0 0.897283 0.0186045 0.798563Q0.037209 0.699843 0.0738122 0.608335Q0.110415 0.516827 0.163826 0.43551Q0.217236 0.354193 0.285714 0.285714Q0.354193 0.217236 0.43551 0.163826Q0.516827 0.110415 0.608335 0.0738122Q0.699843 0.037209 0.798563 0.0186045Q0.897283 0 1 0Z"/>
	<path fill="rgb(33,26,3)" stroke="none" transform="translate(25 4)" d="M25 0C11.1929 0 0 6.26801 0 14L50 14C50 6.26801 38.8071 0 25 0Z" fill-rule="evenodd"/>
	<path fill="rgb(33,26,3)" stroke="none" transform="translate(46 1)" d="M0 2.5C0 1.11929 1.79086 0 4 0C6.20914 0 8 1.11929 8 2.5C8 3.88071 6.20914 5 4 5C1.79086 5 0 3.88071 0 2.5Z"/>
</svg>