<?xml version="1.0" encoding="utf-8" ?>
<svg xmlns="http://www.w3.org/2000/svg" xmlns:xlink="http://www.w3.org/1999/xlink" width="100" height="100">
	<path fill="currentColor" stroke="none" transform="translate(12.5087 6.41809)" d="M35.4321 0.0819011C29.5392 0.416087 10.1821 2.8319 2.43207 17.0819C-5.31793 31.3319 7.93207 56.5819 7.93207 56.5819C7.93207 56.5819 4.92697 42.0105 15.4321 29.5819C25.9372 17.1533 28.3428 16.1329 33.4321 15.5819C38.5214 15.0309 48.6999 15.2783 52.4321 17.5819C56.1642 19.8855 59.0571 25.5819 60.9321 34.5819C62.8071 43.5819 61.4321 52.0819 61.4321 52.0819C61.4321 52.0819 73.4321 43.2069 72.4321 32.0819C71.4321 20.9569 69.7413 16.0819 60.4913 8.0819C51.2413 0.0819015 41.3249 -0.252285 35.4321 0.0819011Z"/>
</svg>