<svg width="100" height="100" viewBox="0 0 100 100" fill="none" xmlns="http://www.w3.org/2000/svg">
<path d="M21.0189 42.7592C19.8686 36.9788 22.7451 30.7945 26.0189 25.2592C26.0189 25.2592 48.5189 19.7592 51.5189 21.2592C54.5189 22.7592 73.6261 23.209 75.5189 27.7592C77.5782 32.7097 77.9516 31.9276 78.5189 37.2592C78.9119 40.9535 76.9345 50.0674 76.5189 53.7592C75.8617 59.5964 78.6117 62.9556 79.5189 68.7592C80.8475 77.2592 75.8165 81.6043 76.5189 84.7592C77.4985 89.1594 74.5189 85.7592 74.5189 85.7592L50.5189 86.2592L25.6401 85.7808C25.4213 86.738 24.5189 85.7592 24.5189 85.7592L25.6401 85.7808C25.7215 85.4247 25.7083 84.8009 25.5189 83.7592C24.9666 80.7216 19.4472 79.2592 19.0189 72.7592C18.7062 68.0145 22.3735 62.4701 23.0189 57.7592C23.9296 51.111 22.1692 48.5396 21.0189 42.7592Z" fill="currentColor"/>
</svg>
