<svg width="100" height="100" viewBox="0 0 100 100" fill="none" xmlns="http://www.w3.org/2000/svg">
<path d="M30.1377 33.3081C33.4501 27.8609 31.2404 25.2299 37.1377 22.8081C41.1766 21.1495 43.7737 20.945 48.1377 20.8081C56.1846 20.5558 62.933 19.6659 68.1377 25.8081C71.8137 30.1463 72.5567 34.1518 73.1377 39.8081C74.0497 48.686 71.3425 50.9191 72.1377 59.8081C73.0198 69.6676 70.6377 82.3081 70.6377 82.3081C70.6377 82.3081 74.993 81.3716 76.6377 77.8081C79.6377 71.3081 78.9448 70.156 79.6377 65.3081C80.2845 60.7832 80.7602 56.7941 81.6377 52.3081C82.7248 46.7509 84.0664 45.4545 83.6377 39.8081C83.2343 34.4938 83.0301 29.0707 80.6377 24.3081C77.9079 18.8738 76.1344 16.9101 70.6377 14.3081C65.965 12.0962 60.7913 10.7178 55.6377 10.3081C47.6377 9.67216 39.953 9.80517 31.6377 12.8081C26.8734 14.5288 24.6222 16.1315 21.1377 19.8081C16.1192 25.1034 15.6314 26.0805 14.6377 33.3081C13.6271 40.659 18.4873 50.4167 19.1377 57.8081C19.7456 64.7153 19.4367 63.6193 21.1377 68.8081C22.8388 73.997 22.1377 88.8081 22.1377 88.8081C22.1377 88.8081 25.9792 81.14 26.6377 75.8081C27.4097 69.5586 28.6242 65.0863 28.1377 58.8081C27.3383 48.4902 24.7609 42.1506 30.1377 33.3081Z" fill="currentColor"/>
</svg>
