<svg width="100" height="100" viewBox="0 0 100 100" fill="none" xmlns="http://www.w3.org/2000/svg">
  <path d="M22.5 28.5C22.1 27.3 23.3333 24.6667 24 23.5C23 23 21.3 21.9 22.5 21.5C24 21 22.5 18.5 21 18.5C19.5 18.5 25 14 26 12C27 10 28.5 10 29 12C29.5 14 35.5 11 37.5 9C39.5 7 42.5 8.5 42.5 10C42.5 11.5 44.5 8.5 49 7.5C53.5 6.5 52 6.5 53 9C54 11.5 55.5 11 56 8.5C56.5 6 63 7.5 64 11C65 14.5 70 10 71 14C71.5 16 76 19 75 18.5C74 18 76 23.5 77 24.5C78 25.5 75.5 27 75 29C74.5 31 71.5 29.5 70 29C68.5 28.5 69.5 26 69.5 24.5C69.5 23 67.5 22.5 66.5 24.5C65.5 26.5 63.5 23.5 63 20.5C62.5 17.5 58.5 21.5 57 23.5C55.5 25.5 54 24.5 54.5 22C54.9 20 51 20.8333 49 21.5C47.5 22.8333 44.5 25.3 44.5 24.5C44.5 23.5 41 23.5 40.5 23.5C40 23.5 36 24.5 35.5 22C35 19.5 30.5 23.5 30.5 24.5C30.5 25.5 28.5 27.5 26 27C23.5 26.5 23 30 22.5 28.5Z" fill="currentColor"/>
</svg>
