<?xml version="1.0" encoding="utf-8" ?>
<svg xmlns="http://www.w3.org/2000/svg" xmlns:xlink="http://www.w3.org/1999/xlink" width="100" height="100">
	<path fill="rgb(222,186,67)" stroke="none" transform="translate(24.1497 0.630493)" d="M25.8503 0C11.5736 0 0 7.90418 0 17.6545L51.7007 17.6545C51.7007 7.90418 40.1271 0 25.8503 0Z" fill-rule="evenodd"/>
	<path fill="rgb(172,138,26)" stroke="none" transform="translate(22.0817 0)" d="M33.0885 0L22.7483 0L21.5326 18.285L1 18.285Q0.897283 18.285 0.798563 18.3036Q0.699843 18.3222 0.608335 18.3588Q0.516827 18.3954 0.43551 18.4488Q0.354193 18.5022 0.285714 18.5707Q0.217236 18.6392 0.163826 18.7205Q0.110415 18.8018 0.0738122 18.8933Q0.037209 18.9849 0.0186045 19.0836Q0 19.1823 0 19.285L0 26.1122Q0 26.215 0.0186045 26.3137Q0.037209 26.4124 0.0738122 26.5039Q0.110415 26.5954 0.163826 26.6767Q0.217236 26.7581 0.285714 26.8265Q0.354193 26.895 0.43551 26.9484Q0.516827 27.0018 0.608335 27.0384Q0.699843 27.075 0.798563 27.0936Q0.897283 27.1122 1 27.1122L54.8367 27.1122Q54.9395 27.1122 55.0382 27.0936Q55.1369 27.075 55.2284 27.0384Q55.3199 27.0018 55.4012 26.9484Q55.4826 26.895 55.551 26.8265Q55.6195 26.7581 55.6729 26.6767Q55.7263 26.5954 55.7629 26.5039Q55.7995 26.4124 55.8181 26.3137Q55.8367 26.215 55.8367 26.1122L55.8367 19.285Q55.8367 19.1823 55.8181 19.0836Q55.7995 18.9849 55.7629 18.8933Q55.7263 18.8018 55.6729 18.7205Q55.6195 18.6392 55.551 18.5707Q55.4826 18.5022 55.4012 18.4488Q55.3199 18.3954 55.2284 18.3588Q55.1369 18.3222 55.0382 18.3036Q54.9395 18.285 54.8367 18.285L34.7093 18.285L33.0885 0Z" fill-rule="evenodd"/>
</svg>